HIERARCHY
ROOT Hips
{
    OFFSET 0.0 0.0 0.0
    CHANNELS 6 Xposition Yposition Zposition Zrotation Xrotation Yrotation
    JOINT Spine
    {
        OFFSET 0.0 5.0 0.0
        CHANNELS 3 Zrotation Xrotation Yrotation
        JOINT Chest
        {
            OFFSET 0.0 5.0 0.0
            CHANNELS 3 Zrotation Xrotation Yrotation
            JOINT Neck
            {
                OFFSET 0.0 8.0 0.0
                CHANNELS 3 Zrotation Xrotation Yrotation
                JOINT Head
                {
                    OFFSET 0.0 5.0 0.0
                    CHANNELS 3 Zrotation Xrotation Yrotation
                    End Site
                    {
                        OFFSET 0.0 3.0 0.0
                    }
                }
            }
            JOINT LeftShoulder
            {
                OFFSET -5.0 0.0 0.0
                CHANNELS 3 Zrotation Xrotation Yrotation
                JOINT LeftArm
                {
                    OFFSET 0.0 -10.0 0.0
                    CHANNELS 3 Zrotation Xrotation Yrotation
                    JOINT LeftForeArm
                    {
                        OFFSET 0.0 -10.0 0.0
                        CHANNELS 3 Zrotation Xrotation Yrotation
                        End Site
                        {
                            OFFSET 0.0 -3.0 0.0
                        }
                    }
                }
            }
        }
    }
}

MOTION
Frames: 14
Frame Time: 0.033333
960.000000 445.000000 98.768626 0.000000 0.000000 0.000000 0.000000 0.000000 0.000000 23.025492 24.216956 0.000000 180.000000 -7.345331 0.000000 21.801409 -1.416573 -0.000000 158.198591 -5.649109 30.000000 15.945396 -5.235705 0.000000 18.000000 0.792324 0.000000
1691.525230 140.756605 96.299939 0.000000 0.000000 0.000000 0.000000 0.000000 0.000000 -163.376529 -0.758985 4.973798 16.623471 7.042192 4.973798 -171.853121 -3.705785 3.759997 99.744051 1.572687 29.763441 -171.126653 -3.512739 -3.759997 0.673538 0.402311 0.313953
1636.048050 128.802021 130.800518 0.000000 0.000000 0.000000 0.000000 0.000000 0.000000 157.904128 -37.591019 9.635073 -22.095872 31.593511 9.635073 -171.936471 -3.960036 7.460697 -143.675701 0.173949 29.057495 -173.500805 -3.591070 -7.460697 0.570999 0.525095 0.626666
1578.156967 80.474526 107.158852 0.000000 0.000000 0.000000 0.000000 0.000000 0.000000 -139.519796 10.504950 13.690942 40.480204 8.416817 13.690942 -174.507724 -4.558913 11.043737 119.111399 -5.253371 27.893295 -173.607258 -4.107403 -11.043737 0.461920 0.436009 0.936907
960.418757 444.998421 108.686356 0.000000 0.000000 0.000000 0.000000 0.000000 0.000000 25.077893 -16.734454 16.886559 180.000000 -0.249076 16.886559 23.861935 -2.810948 14.452610 156.138065 8.932806 26.289200 17.903699 -8.086441 -14.452610 18.000000 -0.228288 1.243449
960.523360 444.997533 111.297451 0.000000 0.000000 0.000000 0.000000 0.000000 0.000000 25.638906 -13.355321 19.021130 180.000000 15.188240 19.021130 24.425035 1.069860 17.633558 155.574965 4.683473 24.270510 18.452907 -8.570293 -17.633558 18.000000 1.305965 1.545085
960.627905 444.996447 145.556307 0.000000 0.000000 0.000000 0.000000 0.000000 0.000000 26.219073 -29.771298 19.960535 180.000000 10.296488 19.960535 25.006291 -8.225456 20.536413 154.993709 0.584188 21.869059 19.024920 2.403771 -20.536413 18.000000 -0.265117 1.840623
1126.242828 420.359820 130.043643 0.000000 0.000000 0.000000 0.000000 0.000000 0.000000 31.410514 8.093987 19.645745 -148.589486 -1.461764 19.645745 32.280463 -2.480722 23.115397 -131.603972 -2.988096 19.122720 45.585331 1.876608 -23.115397 -13.449727 -0.086476 2.128896
1257.895088 650.549197 129.729796 0.000000 0.000000 0.000000 0.000000 0.000000 0.000000 25.073180 7.685732 18.096541 -154.926820 13.817638 18.096541 46.260945 -5.149910 25.329838 -154.651428 -5.552778 16.074804 27.339487 5.269429 -25.329838 -13.619892 -0.110419 2.408768
960.941083 444.992008 128.607058 0.000000 0.000000 0.000000 0.000000 0.000000 0.000000 28.072001 -25.346740 15.410265 180.000000 11.975412 15.410265 26.849221 -3.328825 27.144812 153.150779 17.252119 12.773379 20.864045 -11.666482 -27.144812 18.000000 1.470627 2.679134
1163.815842 547.748709 147.964023 0.000000 0.000000 0.000000 0.000000 0.000000 0.000000 117.162728 -1.880817 11.755705 -62.837272 1.272878 11.755705 102.363764 7.091108 28.531695 -47.376450 2.382615 9.270510 104.768601 0.911165 -28.531695 -6.003489 0.198035 2.938926
961.149372 444.988063 120.986043 0.000000 0.000000 0.000000 0.000000 0.000000 0.000000 29.395983 7.308375 7.362491 180.000000 -18.887468 7.362491 28.146217 18.970009 29.468618 151.853783 -6.413724 5.621439 22.170006 0.221438 -29.468618 18.000000 -0.495286 3.187120
1136.717377 590.104480 164.418845 0.000000 0.000000 0.000000 0.000000 0.000000 0.000000 115.752126 0.030168 2.506665 -64.247874 -7.268601 2.506665 73.638146 5.117722 29.940802 -21.842452 0.685207 1.883716 75.369282 -0.374112 -29.940802 -6.767207 -1.087006 3.422736
1163.079758 634.077559 132.945025 0.000000 0.000000 0.000000 0.000000 0.000000 0.000000 132.174340 -4.276290 -2.506665 -47.825660 4.117386 -2.506665 94.255711 3.072634 29.940802 -149.364979 -6.278013 -1.883716 30.021641 5.661209 -29.940802 -5.096180 -0.216177 3.644843
